<svg xmlns="http://www.w3.org/2000/svg" viewBox="0 0 100 100">
  <defs>
    <filter id="ink-texture">
      <feTurbulence type="fractalNoise" baseFrequency="0.8" numOctaves="3" result="noise" />
      <feColorMatrix type="matrix" values="1 0 0 0 0  0 1 0 0 0  0 0 1 0 0  0 0 0 0.4 0" />
    </filter>
  </defs>
  
  <!-- Seal Body (Vermilion) -->
  <rect x="10" y="10" width="80" height="80" rx="12" fill="#9a2b2b" />
  
  <!-- Inner Border -->
  <rect x="16" y="16" width="68" height="68" rx="8" fill="none" stroke="#b94a48" stroke-width="2" />
  
  <!-- Character 'Yi' (Stylized) -->
  <path d="M30 35 H70 M30 35 Q50 40 70 35 M50 25 V45 M25 55 L75 55 M35 65 L45 80 M65 65 L55 80 M20 20 L25 25" 
        stroke="white" stroke-width="6" stroke-linecap="round" fill="none" 
        style="display:none" /> <!-- Placeholder for path construction reference -->

  <!-- Actual Path for 'Yi' (Simplified Calligraphy look) -->
  <g transform="translate(50, 50) scale(0.8) translate(-50, -50)">
    <!-- Top part (Sun) -->
    <path d="M30 25 H70 V45 H30 Z M30 35 H70" fill="none" stroke="white" stroke-width="7" stroke-linecap="round" stroke-linejoin="round" />
    <!-- Bottom part (Moon strokes roughly) -->
    <path d="M30 60 Q40 65 50 60 Q30 75 25 85 M60 55 Q70 65 75 80 M40 70 L60 70" fill="none" stroke="white" stroke-width="7" stroke-linecap="round" stroke-linejoin="round" />
  </g>
  
  <!-- Texture Overlay -->
  <rect x="10" y="10" width="80" height="80" rx="12" fill="url(#ink-texture)" style="mix-blend-mode: multiply; opacity: 0.3;" />
</svg>